<?xml version="1.0" encoding="utf-8"?>
<!-- Generator: Adobe Illustrator 18.0.0, SVG Export Plug-In . SVG Version: 6.00 Build 0)  -->
<!DOCTYPE svg PUBLIC "-//W3C//DTD SVG 1.1//EN" "http://www.w3.org/Graphics/SVG/1.1/DTD/svg11.dtd">
<svg version="1.1" id="Layer_1" xmlns="http://www.w3.org/2000/svg" xmlns:xlink="http://www.w3.org/1999/xlink" x="0px" y="0px"
	 viewBox="0 0 173.205 70.445" enable-background="new 0 0 173.205 70.445" xml:space="preserve">
<path fill="#4D4D4D" d="M21.866,29.763L21.866,29.763c0,0-0.001,0-0.002,0c-0.579,0-1.048,0.469-1.048,1.048
	s0.469,1.048,1.048,1.048c0.001,0,0.001,0,0.001,0l0.001,0h19.901v-2.095H21.866L21.866,29.763z"/>
<path fill="#4D4D4D" d="M166.558,3.435h-4.962v-2.29c0-0.633-0.512-1.145-1.145-1.145s-1.145,0.512-1.145,1.145v2.29h-6.869v-2.29
	c0-0.633-0.513-1.145-1.145-1.145s-1.145,0.512-1.145,1.145v2.29h-6.869v-2.29c0-0.633-0.513-1.145-1.145-1.145
	s-1.145,0.512-1.145,1.145v2.29h-4.961c-1.686,0-3.053,1.366-3.053,3.052v27.097c0,1.686,1.367,3.053,3.053,3.053h30.531
	c1.686,0,3.052-1.367,3.052-3.053V6.487C169.61,4.801,168.244,3.435,166.558,3.435L166.558,3.435z M167.32,33.584
	c0,0.421-0.342,0.764-0.763,0.764h-30.531c-0.421,0-0.764-0.342-0.764-0.764V6.487c0-0.42,0.342-0.763,0.764-0.763h4.961v2.29
	c0,0.633,0.513,1.145,1.145,1.145s1.145-0.512,1.145-1.145v-2.29h6.869v2.29c0,0.633,0.513,1.145,1.145,1.145
	s1.145-0.512,1.145-1.145v-2.29h6.869v2.29c0,0.633,0.512,1.145,1.145,1.145s1.145-0.512,1.145-1.145v-2.29h4.962
	c0.42,0,0.763,0.342,0.763,0.763V33.584z M140.987,13.739h4.58v3.435h-4.58V13.739z M140.987,19.464h4.58v3.435h-4.58V19.464z
	 M140.987,25.188h4.58v3.435h-4.58V25.188z M149.002,25.188h4.58v3.435h-4.58V25.188z M149.002,19.464h4.58v3.435h-4.58V19.464z
	 M149.002,13.739h4.58v3.435h-4.58V13.739z M157.016,25.188h4.58v3.435h-4.58V25.188z M157.016,19.464h4.58v3.435h-4.58V19.464z
	 M157.016,13.739h4.58v3.435h-4.58V13.739z"/>
<g>
	<path fill="#4D4D4D" d="M5.063,50.968c0.06,0.136,0.118,0.275,0.173,0.418c0.055-0.146,0.114-0.289,0.176-0.429
		c0.062-0.14,0.128-0.273,0.198-0.401l2.217-4.241c0.033-0.062,0.068-0.11,0.104-0.146c0.037-0.034,0.076-0.061,0.118-0.077
		c0.042-0.017,0.09-0.026,0.143-0.03c0.053-0.003,0.116-0.005,0.189-0.005h1.254v7.98H8.179v-4.9c0-0.1,0.002-0.207,0.008-0.325
		c0.006-0.117,0.014-0.238,0.025-0.362l-2.277,4.328c-0.125,0.238-0.317,0.357-0.578,0.357H5.126c-0.128,0-0.242-0.03-0.341-0.091
		c-0.099-0.061-0.178-0.149-0.237-0.267l-2.293-4.34c0.011,0.125,0.02,0.247,0.028,0.366c0.007,0.119,0.011,0.23,0.011,0.333v4.9
		H0.836v-7.98H2.09c0.07,0,0.132,0.002,0.187,0.005c0.055,0.004,0.104,0.014,0.146,0.03c0.042,0.017,0.081,0.043,0.115,0.077
		c0.035,0.035,0.069,0.084,0.102,0.146l2.233,4.258C4.939,50.701,5.002,50.833,5.063,50.968z"/>
	<path fill="#4D4D4D" d="M15.037,49.633c-0.044,0.059-0.088,0.104-0.132,0.135c-0.044,0.03-0.106,0.046-0.187,0.046
		c-0.073,0-0.144-0.021-0.211-0.062c-0.068-0.043-0.146-0.089-0.234-0.138c-0.088-0.05-0.192-0.096-0.313-0.138
		s-0.271-0.063-0.451-0.063c-0.228,0-0.424,0.041-0.591,0.124c-0.167,0.082-0.305,0.201-0.415,0.354
		c-0.11,0.154-0.192,0.341-0.245,0.562c-0.053,0.22-0.08,0.467-0.08,0.742c0,0.579,0.117,1.023,0.35,1.331
		c0.232,0.308,0.551,0.462,0.954,0.462c0.139,0,0.259-0.012,0.36-0.036c0.101-0.023,0.188-0.054,0.264-0.09
		c0.075-0.037,0.141-0.077,0.195-0.121c0.055-0.044,0.107-0.085,0.157-0.121c0.05-0.037,0.099-0.067,0.148-0.091
		c0.05-0.024,0.105-0.036,0.168-0.036c0.117,0,0.209,0.044,0.275,0.132l0.435,0.551c-0.162,0.187-0.333,0.342-0.517,0.464
		c-0.183,0.123-0.373,0.221-0.569,0.292c-0.196,0.071-0.395,0.121-0.597,0.148s-0.401,0.041-0.6,0.041
		c-0.348,0-0.678-0.064-0.99-0.195c-0.312-0.13-0.585-0.319-0.819-0.569c-0.235-0.249-0.421-0.555-0.559-0.918
		c-0.137-0.363-0.206-0.777-0.206-1.243c0-0.414,0.061-0.799,0.182-1.155c0.121-0.355,0.299-0.663,0.533-0.924
		c0.235-0.26,0.525-0.465,0.872-0.613c0.346-0.148,0.747-0.223,1.202-0.223c0.433,0,0.812,0.069,1.138,0.209
		c0.327,0.14,0.62,0.341,0.88,0.605L15.037,49.633z"/>
	<path fill="#4D4D4D" d="M21.689,53.92c-0.46,0.137-0.947,0.206-1.46,0.206c-0.656,0-1.25-0.102-1.782-0.306
		c-0.532-0.203-0.986-0.486-1.364-0.85c-0.377-0.363-0.669-0.794-0.875-1.292c-0.205-0.499-0.308-1.044-0.308-1.634
		c0-0.598,0.098-1.146,0.294-1.645c0.196-0.499,0.476-0.928,0.839-1.287s0.802-0.64,1.317-0.842
		c0.515-0.201,1.092-0.302,1.729-0.302c0.33,0,0.638,0.026,0.924,0.079c0.286,0.054,0.55,0.127,0.792,0.221
		c0.242,0.093,0.464,0.204,0.666,0.332c0.202,0.129,0.385,0.27,0.55,0.424l-0.479,0.737c-0.073,0.117-0.168,0.188-0.286,0.214
		c-0.117,0.026-0.246-0.003-0.385-0.088c-0.132-0.08-0.261-0.153-0.388-0.217c-0.126-0.064-0.261-0.12-0.404-0.168
		s-0.299-0.084-0.468-0.11c-0.168-0.025-0.363-0.038-0.583-0.038c-0.37,0-0.706,0.064-1.006,0.192s-0.556,0.31-0.767,0.545
		c-0.211,0.234-0.373,0.517-0.487,0.847s-0.17,0.698-0.17,1.105c0,0.439,0.062,0.833,0.187,1.18c0.125,0.347,0.3,0.639,0.528,0.877
		s0.5,0.42,0.817,0.545c0.317,0.125,0.67,0.187,1.059,0.187c0.264,0,0.5-0.026,0.707-0.079c0.207-0.054,0.41-0.126,0.607-0.218
		v-1.342h-0.902c-0.106,0-0.19-0.028-0.25-0.085s-0.09-0.13-0.09-0.218v-0.918h2.739v3.294
		C22.583,53.564,22.149,53.782,21.689,53.92z"/>
	<path fill="#4D4D4D" d="M25.872,46.756c0,0.128-0.026,0.247-0.077,0.357s-0.12,0.207-0.206,0.292
		c-0.086,0.084-0.187,0.15-0.303,0.197c-0.115,0.048-0.239,0.072-0.371,0.072c-0.125,0-0.243-0.024-0.355-0.072
		c-0.112-0.047-0.21-0.113-0.294-0.197c-0.084-0.085-0.151-0.182-0.201-0.292c-0.05-0.11-0.075-0.229-0.075-0.357
		s0.025-0.248,0.075-0.36c0.049-0.111,0.116-0.21,0.201-0.294c0.084-0.085,0.182-0.15,0.294-0.198s0.23-0.071,0.355-0.071
		c0.132,0,0.256,0.023,0.371,0.071c0.116,0.048,0.216,0.113,0.303,0.198c0.086,0.084,0.155,0.183,0.206,0.294
		C25.846,46.508,25.872,46.628,25.872,46.756z M25.69,48.367v5.671h-1.518v-5.671H25.69z"/>
	<path fill="#4D4D4D" d="M28.517,45.837v8.201H27v-8.201H28.517z"/>
	<path fill="#4D4D4D" d="M31.311,45.837v8.201h-1.518v-8.201H31.311z"/>
	<path fill="#4D4D4D" d="M40.832,52.074c0.092,0,0.168,0.033,0.231,0.1l0.654,0.698c-0.322,0.41-0.723,0.722-1.202,0.935
		s-1.048,0.319-1.708,0.319c-0.598,0-1.135-0.102-1.612-0.306c-0.477-0.203-0.882-0.486-1.215-0.85s-0.59-0.794-0.77-1.292
		c-0.18-0.499-0.27-1.044-0.27-1.634c0-0.396,0.043-0.772,0.129-1.13c0.086-0.358,0.212-0.687,0.377-0.987
		c0.165-0.301,0.364-0.572,0.597-0.814c0.232-0.242,0.496-0.448,0.789-0.619c0.293-0.17,0.613-0.3,0.96-0.39
		c0.346-0.09,0.716-0.135,1.108-0.135c0.293,0,0.571,0.025,0.833,0.076c0.262,0.052,0.507,0.123,0.734,0.215
		c0.227,0.092,0.437,0.203,0.629,0.333c0.193,0.13,0.366,0.272,0.52,0.426l-0.556,0.76c-0.033,0.047-0.075,0.09-0.126,0.126
		c-0.051,0.037-0.121,0.055-0.209,0.055s-0.177-0.03-0.267-0.093s-0.2-0.133-0.33-0.209c-0.13-0.077-0.293-0.146-0.49-0.209
		s-0.444-0.094-0.745-0.094c-0.333,0-0.64,0.061-0.918,0.182s-0.518,0.296-0.718,0.525c-0.2,0.229-0.355,0.51-0.465,0.844
		s-0.165,0.713-0.165,1.139c0,0.429,0.06,0.812,0.179,1.146c0.119,0.336,0.283,0.619,0.49,0.85c0.207,0.231,0.449,0.406,0.726,0.525
		s0.573,0.179,0.888,0.179c0.187,0,0.356-0.009,0.509-0.027c0.152-0.019,0.293-0.05,0.423-0.094s0.253-0.101,0.369-0.17
		c0.115-0.07,0.232-0.158,0.349-0.265c0.041-0.032,0.083-0.061,0.126-0.082C40.732,52.085,40.78,52.074,40.832,52.074z"/>
	<path fill="#4D4D4D" d="M43.966,45.837v8.201h-1.518v-8.201H43.966z"/>
	<path fill="#4D4D4D" d="M48.982,54.038c-0.143,0-0.252-0.021-0.327-0.061s-0.137-0.125-0.184-0.253l-0.121-0.357
		c-0.143,0.124-0.282,0.233-0.416,0.327c-0.134,0.093-0.273,0.172-0.418,0.236c-0.145,0.064-0.299,0.112-0.462,0.146
		s-0.344,0.05-0.542,0.05c-0.25,0-0.477-0.033-0.682-0.1c-0.206-0.065-0.382-0.164-0.531-0.294s-0.263-0.292-0.344-0.486
		s-0.121-0.418-0.121-0.671c0-0.209,0.053-0.417,0.16-0.625c0.106-0.207,0.289-0.396,0.547-0.566
		c0.258-0.17,0.603-0.312,1.034-0.426c0.431-0.114,0.971-0.178,1.62-0.192v-0.292c0-0.355-0.075-0.616-0.225-0.783
		c-0.15-0.167-0.367-0.251-0.649-0.251c-0.209,0-0.383,0.025-0.522,0.074c-0.139,0.05-0.261,0.104-0.366,0.16
		s-0.203,0.109-0.294,0.159c-0.092,0.05-0.198,0.074-0.319,0.074c-0.106,0-0.195-0.026-0.267-0.08
		c-0.071-0.053-0.131-0.116-0.179-0.189l-0.27-0.483c0.333-0.301,0.702-0.525,1.105-0.674s0.84-0.223,1.309-0.223
		c0.337,0,0.639,0.055,0.905,0.164c0.266,0.11,0.491,0.264,0.676,0.46s0.328,0.43,0.426,0.701c0.099,0.271,0.148,0.568,0.148,0.891
		v3.564H48.982z M46.986,53.102c0.25,0,0.468-0.045,0.655-0.135s0.372-0.228,0.555-0.415v-0.88c-0.37,0.015-0.678,0.046-0.924,0.094
		s-0.441,0.107-0.586,0.179c-0.145,0.071-0.247,0.153-0.308,0.247s-0.091,0.195-0.091,0.306c0,0.22,0.061,0.376,0.184,0.468
		C46.595,53.056,46.766,53.102,46.986,53.102z"/>
	<path fill="#4D4D4D" d="M54.389,49.533c-0.04,0.062-0.082,0.107-0.124,0.135c-0.042,0.027-0.1,0.041-0.173,0.041
		s-0.148-0.018-0.226-0.055c-0.077-0.036-0.163-0.076-0.258-0.118c-0.096-0.042-0.205-0.082-0.327-0.118
		c-0.123-0.037-0.265-0.055-0.426-0.055c-0.246,0-0.437,0.05-0.572,0.15c-0.136,0.102-0.204,0.234-0.204,0.399
		c0,0.113,0.039,0.209,0.116,0.286c0.077,0.076,0.179,0.144,0.305,0.2s0.271,0.11,0.432,0.16c0.162,0.049,0.328,0.104,0.498,0.162
		s0.336,0.126,0.498,0.203s0.305,0.173,0.432,0.289c0.126,0.115,0.229,0.255,0.306,0.418c0.077,0.163,0.115,0.36,0.115,0.591
		c0,0.275-0.05,0.529-0.151,0.762c-0.101,0.233-0.249,0.434-0.442,0.603c-0.195,0.169-0.437,0.301-0.726,0.396
		c-0.29,0.096-0.624,0.144-1.001,0.144c-0.194,0-0.387-0.018-0.578-0.053c-0.191-0.034-0.372-0.084-0.544-0.148
		c-0.172-0.063-0.334-0.138-0.484-0.223c-0.15-0.084-0.281-0.176-0.391-0.274l0.352-0.566c0.04-0.066,0.091-0.118,0.151-0.154
		c0.061-0.037,0.139-0.056,0.234-0.056c0.092,0,0.176,0.023,0.253,0.069c0.077,0.046,0.163,0.096,0.259,0.148
		c0.095,0.053,0.208,0.103,0.338,0.148c0.13,0.046,0.292,0.068,0.487,0.068c0.147,0,0.273-0.016,0.38-0.049
		c0.106-0.033,0.192-0.078,0.258-0.135s0.115-0.121,0.146-0.192c0.031-0.072,0.047-0.146,0.047-0.223
		c0-0.125-0.04-0.227-0.118-0.306c-0.079-0.079-0.182-0.147-0.308-0.206s-0.272-0.112-0.437-0.16
		c-0.165-0.047-0.333-0.101-0.503-0.159s-0.337-0.128-0.5-0.209c-0.163-0.08-0.308-0.183-0.435-0.305
		c-0.126-0.123-0.229-0.274-0.308-0.454c-0.079-0.18-0.118-0.397-0.118-0.654c0-0.235,0.046-0.458,0.138-0.669
		c0.091-0.21,0.229-0.396,0.413-0.558c0.183-0.161,0.412-0.29,0.685-0.386c0.273-0.095,0.589-0.143,0.949-0.143
		c0.403,0,0.77,0.066,1.1,0.198s0.601,0.304,0.814,0.517L54.389,49.533z"/>
	<path fill="#4D4D4D" d="M59.256,49.533c-0.04,0.062-0.082,0.107-0.124,0.135c-0.042,0.027-0.1,0.041-0.173,0.041
		s-0.148-0.018-0.226-0.055c-0.077-0.036-0.163-0.076-0.258-0.118c-0.096-0.042-0.205-0.082-0.327-0.118
		c-0.123-0.037-0.265-0.055-0.426-0.055c-0.246,0-0.437,0.05-0.572,0.15c-0.136,0.102-0.204,0.234-0.204,0.399
		c0,0.113,0.039,0.209,0.116,0.286c0.077,0.076,0.179,0.144,0.305,0.2s0.271,0.11,0.432,0.16c0.162,0.049,0.328,0.104,0.498,0.162
		s0.336,0.126,0.498,0.203s0.305,0.173,0.432,0.289c0.126,0.115,0.229,0.255,0.306,0.418c0.077,0.163,0.115,0.36,0.115,0.591
		c0,0.275-0.05,0.529-0.151,0.762c-0.101,0.233-0.249,0.434-0.442,0.603c-0.195,0.169-0.437,0.301-0.726,0.396
		c-0.29,0.096-0.624,0.144-1.001,0.144c-0.194,0-0.387-0.018-0.578-0.053c-0.191-0.034-0.372-0.084-0.544-0.148
		c-0.172-0.063-0.334-0.138-0.484-0.223c-0.15-0.084-0.281-0.176-0.391-0.274l0.352-0.566c0.04-0.066,0.091-0.118,0.151-0.154
		c0.061-0.037,0.139-0.056,0.234-0.056c0.092,0,0.176,0.023,0.253,0.069c0.077,0.046,0.163,0.096,0.259,0.148
		c0.095,0.053,0.208,0.103,0.338,0.148c0.13,0.046,0.292,0.068,0.487,0.068c0.147,0,0.273-0.016,0.38-0.049
		c0.106-0.033,0.192-0.078,0.258-0.135s0.115-0.121,0.146-0.192c0.031-0.072,0.047-0.146,0.047-0.223
		c0-0.125-0.04-0.227-0.118-0.306c-0.079-0.079-0.182-0.147-0.308-0.206s-0.272-0.112-0.437-0.16
		c-0.165-0.047-0.333-0.101-0.503-0.159s-0.337-0.128-0.5-0.209c-0.163-0.08-0.308-0.183-0.435-0.305
		c-0.126-0.123-0.229-0.274-0.308-0.454c-0.079-0.18-0.118-0.397-0.118-0.654c0-0.235,0.046-0.458,0.138-0.669
		c0.091-0.21,0.229-0.396,0.413-0.558c0.183-0.161,0.412-0.29,0.685-0.386c0.273-0.095,0.589-0.143,0.949-0.143
		c0.403,0,0.77,0.066,1.1,0.198s0.601,0.304,0.814,0.517L59.256,49.533z"/>
	<path fill="#4D4D4D" d="M14.091,60.786c-0.052,0.085-0.104,0.146-0.157,0.185c-0.053,0.039-0.122,0.058-0.207,0.058
		c-0.081,0-0.167-0.028-0.261-0.085c-0.093-0.057-0.203-0.118-0.327-0.185c-0.125-0.065-0.268-0.127-0.429-0.184
		c-0.161-0.058-0.35-0.086-0.566-0.086c-0.381,0-0.667,0.086-0.858,0.256C11.095,60.916,11,61.138,11,61.413
		c0,0.177,0.052,0.322,0.157,0.438s0.242,0.216,0.413,0.3c0.17,0.085,0.364,0.159,0.58,0.226s0.438,0.139,0.666,0.218
		c0.228,0.078,0.449,0.171,0.666,0.277s0.41,0.24,0.581,0.401c0.17,0.161,0.308,0.358,0.412,0.592
		c0.104,0.232,0.157,0.516,0.157,0.85c0,0.362-0.063,0.703-0.19,1.02c-0.126,0.317-0.309,0.595-0.547,0.831
		s-0.533,0.423-0.883,0.558c-0.35,0.136-0.747,0.204-1.19,0.204c-0.253,0-0.505-0.025-0.756-0.077
		c-0.251-0.052-0.493-0.123-0.726-0.215c-0.233-0.091-0.452-0.201-0.657-0.33c-0.206-0.128-0.385-0.271-0.539-0.429l0.484-0.781
		c0.041-0.059,0.094-0.106,0.16-0.146c0.066-0.038,0.136-0.058,0.209-0.058c0.099,0,0.204,0.037,0.313,0.11s0.236,0.153,0.379,0.241
		c0.143,0.089,0.309,0.169,0.498,0.242c0.188,0.073,0.415,0.11,0.679,0.11c0.385,0,0.683-0.088,0.894-0.264
		c0.211-0.177,0.316-0.438,0.316-0.787c0-0.201-0.052-0.364-0.157-0.489s-0.241-0.229-0.41-0.313
		c-0.169-0.084-0.361-0.157-0.578-0.218c-0.216-0.06-0.438-0.127-0.666-0.2c-0.228-0.073-0.449-0.161-0.666-0.264
		c-0.216-0.104-0.409-0.238-0.578-0.407c-0.168-0.169-0.305-0.378-0.41-0.627c-0.104-0.25-0.157-0.56-0.157-0.93
		c0-0.297,0.059-0.585,0.176-0.863c0.117-0.279,0.29-0.526,0.517-0.743c0.228-0.216,0.507-0.39,0.839-0.522
		c0.332-0.132,0.712-0.197,1.141-0.197c0.48,0,0.925,0.074,1.334,0.223c0.409,0.148,0.754,0.354,1.037,0.618L14.091,60.786z"/>
	<path fill="#4D4D4D" d="M19.734,62.833c-0.044,0.059-0.088,0.104-0.132,0.135c-0.044,0.03-0.106,0.046-0.187,0.046
		c-0.073,0-0.144-0.021-0.211-0.062c-0.068-0.043-0.146-0.089-0.234-0.138c-0.088-0.05-0.192-0.096-0.313-0.138
		s-0.271-0.063-0.451-0.063c-0.228,0-0.424,0.041-0.591,0.124c-0.167,0.082-0.305,0.201-0.415,0.354
		c-0.11,0.154-0.192,0.341-0.245,0.562c-0.053,0.22-0.08,0.467-0.08,0.742c0,0.579,0.117,1.023,0.35,1.331
		c0.232,0.308,0.551,0.462,0.954,0.462c0.139,0,0.259-0.012,0.36-0.036c0.101-0.023,0.188-0.054,0.264-0.09
		c0.075-0.037,0.141-0.077,0.195-0.121c0.055-0.044,0.107-0.085,0.157-0.121c0.05-0.037,0.099-0.067,0.148-0.091
		c0.05-0.024,0.105-0.036,0.168-0.036c0.117,0,0.209,0.044,0.275,0.132l0.435,0.551c-0.162,0.187-0.333,0.342-0.517,0.464
		c-0.183,0.123-0.373,0.221-0.569,0.292c-0.196,0.071-0.395,0.121-0.597,0.148s-0.401,0.041-0.6,0.041
		c-0.348,0-0.678-0.064-0.99-0.195c-0.312-0.13-0.585-0.319-0.819-0.569c-0.235-0.249-0.421-0.555-0.559-0.918
		c-0.137-0.363-0.206-0.777-0.206-1.243c0-0.414,0.061-0.799,0.182-1.155c0.121-0.355,0.299-0.663,0.533-0.924
		c0.235-0.26,0.525-0.465,0.872-0.613c0.346-0.148,0.747-0.223,1.202-0.223c0.433,0,0.812,0.069,1.138,0.209
		c0.327,0.14,0.62,0.341,0.88,0.605L19.734,62.833z"/>
	<path fill="#4D4D4D" d="M20.944,67.238v-8.201h1.518v3.092c0.212-0.194,0.445-0.352,0.698-0.471
		c0.253-0.119,0.554-0.179,0.902-0.179c0.308,0,0.581,0.054,0.819,0.159c0.238,0.106,0.439,0.255,0.603,0.446
		c0.163,0.19,0.286,0.418,0.368,0.682s0.124,0.554,0.124,0.869v3.603h-1.513v-3.603c0-0.315-0.073-0.561-0.22-0.734
		c-0.146-0.174-0.363-0.262-0.649-0.262c-0.216,0-0.417,0.047-0.602,0.141s-0.362,0.221-0.531,0.382v4.076H20.944z"/>
	<path fill="#4D4D4D" d="M29.639,61.479c0.363,0,0.698,0.058,1.004,0.173c0.306,0.116,0.57,0.284,0.792,0.504
		c0.222,0.22,0.394,0.49,0.517,0.812c0.123,0.32,0.184,0.687,0.184,1.097c0,0.114-0.005,0.207-0.017,0.28
		c-0.011,0.073-0.029,0.132-0.055,0.177c-0.026,0.044-0.061,0.074-0.104,0.09c-0.044,0.017-0.101,0.025-0.171,0.025h-3.404
		c0.047,0.531,0.199,0.92,0.454,1.166c0.255,0.245,0.589,0.368,1.004,0.368c0.209,0,0.39-0.024,0.542-0.074
		c0.152-0.05,0.286-0.104,0.402-0.165c0.115-0.061,0.22-0.115,0.313-0.165c0.093-0.049,0.186-0.074,0.278-0.074
		c0.117,0,0.209,0.044,0.275,0.132l0.44,0.551c-0.162,0.187-0.339,0.342-0.534,0.464c-0.194,0.123-0.396,0.221-0.605,0.292
		s-0.42,0.121-0.632,0.148c-0.213,0.027-0.418,0.041-0.616,0.041c-0.396,0-0.765-0.064-1.108-0.195
		c-0.343-0.13-0.642-0.322-0.896-0.577c-0.255-0.255-0.456-0.571-0.603-0.949c-0.146-0.377-0.22-0.815-0.22-1.314
		c0-0.385,0.063-0.748,0.189-1.089s0.309-0.638,0.547-0.891s0.528-0.454,0.869-0.603C28.825,61.553,29.21,61.479,29.639,61.479z
		 M29.667,62.547c-0.363,0-0.647,0.104-0.852,0.311c-0.206,0.207-0.339,0.499-0.402,0.877h2.365c0-0.157-0.021-0.308-0.063-0.451
		c-0.042-0.143-0.109-0.27-0.201-0.379c-0.092-0.11-0.207-0.197-0.347-0.262C30.028,62.579,29.861,62.547,29.667,62.547z"/>
	<path fill="#4D4D4D" d="M37.163,67.238c-0.194,0-0.319-0.088-0.374-0.265l-0.126-0.494c-0.227,0.249-0.485,0.451-0.772,0.607
		c-0.288,0.155-0.628,0.233-1.021,0.233c-0.304,0-0.583-0.064-0.836-0.192s-0.472-0.316-0.657-0.563
		c-0.185-0.248-0.329-0.551-0.432-0.91c-0.103-0.359-0.154-0.771-0.154-1.232c0-0.422,0.058-0.813,0.173-1.177
		c0.116-0.363,0.28-0.677,0.492-0.94c0.213-0.264,0.469-0.472,0.77-0.622c0.301-0.149,0.634-0.225,1.001-0.225
		c0.308,0,0.567,0.046,0.778,0.137c0.211,0.092,0.402,0.217,0.575,0.374v-2.932h1.518v8.201H37.163z M35.392,66.143
		c0.268,0,0.492-0.053,0.674-0.157s0.353-0.255,0.514-0.453v-2.491c-0.143-0.165-0.298-0.281-0.465-0.347
		c-0.167-0.066-0.344-0.1-0.531-0.1c-0.183,0-0.35,0.035-0.5,0.104c-0.15,0.07-0.279,0.179-0.388,0.327
		c-0.108,0.149-0.191,0.339-0.25,0.569c-0.059,0.231-0.088,0.507-0.088,0.825c0,0.315,0.023,0.583,0.071,0.803
		c0.048,0.221,0.116,0.398,0.206,0.534s0.199,0.233,0.328,0.294C35.091,66.113,35.234,66.143,35.392,66.143z"/>
	<path fill="#4D4D4D" d="M40.821,61.567v3.603c0,0.315,0.073,0.561,0.217,0.734c0.145,0.174,0.36,0.262,0.646,0.262
		c0.212,0,0.413-0.047,0.6-0.141s0.365-0.221,0.533-0.383v-4.075h1.518v5.671H43.4c-0.194,0-0.319-0.088-0.374-0.265l-0.099-0.396
		c-0.227,0.224-0.476,0.404-0.745,0.542c-0.27,0.137-0.589,0.206-0.959,0.206c-0.308,0-0.583-0.054-0.822-0.159
		c-0.24-0.106-0.441-0.255-0.603-0.446c-0.161-0.19-0.284-0.418-0.368-0.682c-0.084-0.264-0.127-0.554-0.127-0.869v-3.603H40.821z"
		/>
	<path fill="#4D4D4D" d="M47.118,59.037v8.201h-1.518v-8.201H47.118z"/>
	<path fill="#4D4D4D" d="M50.842,61.479c0.363,0,0.698,0.058,1.004,0.173c0.306,0.116,0.57,0.284,0.792,0.504
		c0.222,0.22,0.394,0.49,0.517,0.812c0.123,0.32,0.184,0.687,0.184,1.097c0,0.114-0.005,0.207-0.017,0.28
		c-0.011,0.073-0.029,0.132-0.055,0.177c-0.026,0.044-0.061,0.074-0.104,0.09c-0.044,0.017-0.101,0.025-0.171,0.025h-3.404
		c0.047,0.531,0.199,0.92,0.454,1.166c0.255,0.245,0.589,0.368,1.004,0.368c0.209,0,0.39-0.024,0.542-0.074
		c0.152-0.05,0.286-0.104,0.402-0.165c0.115-0.061,0.22-0.115,0.313-0.165c0.093-0.049,0.186-0.074,0.278-0.074
		c0.117,0,0.209,0.044,0.275,0.132l0.44,0.551c-0.162,0.187-0.339,0.342-0.534,0.464c-0.194,0.123-0.396,0.221-0.605,0.292
		s-0.42,0.121-0.632,0.148c-0.213,0.027-0.418,0.041-0.616,0.041c-0.396,0-0.765-0.064-1.108-0.195
		c-0.343-0.13-0.642-0.322-0.896-0.577c-0.255-0.255-0.456-0.571-0.603-0.949c-0.146-0.377-0.22-0.815-0.22-1.314
		c0-0.385,0.063-0.748,0.189-1.089s0.309-0.638,0.547-0.891s0.528-0.454,0.869-0.603C50.028,61.553,50.413,61.479,50.842,61.479z
		 M50.869,62.547c-0.363,0-0.647,0.104-0.852,0.311c-0.206,0.207-0.339,0.499-0.402,0.877h2.365c0-0.157-0.021-0.308-0.063-0.451
		c-0.042-0.143-0.109-0.27-0.201-0.379c-0.092-0.11-0.207-0.197-0.347-0.262C51.23,62.579,51.063,62.547,50.869,62.547z"/>
</g>
<g>
	<path fill="#4D4D4D" d="M138.458,53.92c-0.46,0.138-0.947,0.206-1.46,0.206c-0.656,0-1.251-0.102-1.782-0.305
		c-0.531-0.204-0.986-0.487-1.364-0.85c-0.378-0.363-0.669-0.794-0.874-1.293c-0.206-0.498-0.309-1.043-0.309-1.634
		c0-0.598,0.099-1.146,0.295-1.645c0.195-0.498,0.476-0.927,0.839-1.286c0.362-0.359,0.802-0.641,1.316-0.842
		c0.516-0.202,1.092-0.303,1.73-0.303c0.33,0,0.638,0.026,0.924,0.08c0.286,0.053,0.55,0.126,0.792,0.22s0.464,0.204,0.665,0.333
		c0.202,0.128,0.386,0.27,0.551,0.423l-0.479,0.737c-0.074,0.117-0.169,0.189-0.286,0.215c-0.118,0.025-0.246-0.004-0.386-0.088
		c-0.132-0.081-0.261-0.153-0.388-0.218c-0.126-0.063-0.261-0.12-0.404-0.168c-0.143-0.047-0.299-0.084-0.467-0.109
		c-0.169-0.025-0.363-0.039-0.583-0.039c-0.371,0-0.706,0.064-1.007,0.192c-0.301,0.129-0.557,0.311-0.768,0.545
		s-0.373,0.517-0.486,0.847s-0.171,0.699-0.171,1.105c0,0.44,0.062,0.834,0.188,1.18c0.124,0.347,0.301,0.64,0.528,0.878
		c0.227,0.238,0.499,0.42,0.816,0.544c0.317,0.125,0.67,0.188,1.059,0.188c0.264,0,0.5-0.026,0.707-0.08
		c0.207-0.053,0.409-0.125,0.607-0.217v-1.342h-0.902c-0.106,0-0.189-0.029-0.25-0.086s-0.091-0.129-0.091-0.217v-0.919h2.739v3.295
		C139.352,53.565,138.918,53.782,138.458,53.92z"/>
	<path fill="#4D4D4D" d="M143.389,48.28c0.425,0,0.812,0.067,1.16,0.203c0.349,0.136,0.647,0.329,0.896,0.58
		c0.25,0.251,0.442,0.557,0.578,0.916s0.203,0.765,0.203,1.216c0,0.45-0.067,0.856-0.203,1.218s-0.328,0.668-0.578,0.921
		c-0.249,0.253-0.548,0.447-0.896,0.583c-0.348,0.136-0.735,0.204-1.16,0.204c-0.429,0-0.818-0.068-1.169-0.204
		c-0.35-0.136-0.649-0.33-0.899-0.583c-0.249-0.253-0.442-0.56-0.58-0.921s-0.206-0.768-0.206-1.218
		c0-0.451,0.068-0.856,0.206-1.216s0.331-0.665,0.58-0.916c0.25-0.251,0.55-0.444,0.899-0.58
		C142.571,48.347,142.96,48.28,143.389,48.28z M143.389,52.982c0.433,0,0.754-0.149,0.963-0.448s0.313-0.743,0.313-1.334
		c0-0.587-0.104-1.029-0.313-1.328s-0.53-0.448-0.963-0.448c-0.443,0-0.771,0.149-0.979,0.448s-0.313,0.741-0.313,1.328
		c0,0.591,0.104,1.035,0.313,1.334S142.946,52.982,143.389,52.982z"/>
	<path fill="#4D4D4D" d="M149.742,48.28c0.425,0,0.812,0.067,1.16,0.203c0.349,0.136,0.647,0.329,0.896,0.58
		c0.25,0.251,0.442,0.557,0.578,0.916s0.203,0.765,0.203,1.216c0,0.45-0.067,0.856-0.203,1.218s-0.328,0.668-0.578,0.921
		c-0.249,0.253-0.548,0.447-0.896,0.583c-0.348,0.136-0.735,0.204-1.16,0.204c-0.429,0-0.818-0.068-1.169-0.204
		c-0.35-0.136-0.649-0.33-0.899-0.583c-0.249-0.253-0.442-0.56-0.58-0.921s-0.206-0.768-0.206-1.218
		c0-0.451,0.068-0.856,0.206-1.216s0.331-0.665,0.58-0.916c0.25-0.251,0.55-0.444,0.899-0.58
		C148.923,48.347,149.313,48.28,149.742,48.28z M149.742,52.982c0.433,0,0.754-0.149,0.963-0.448s0.313-0.743,0.313-1.334
		c0-0.587-0.104-1.029-0.313-1.328s-0.53-0.448-0.963-0.448c-0.443,0-0.771,0.149-0.979,0.448s-0.313,0.741-0.313,1.328
		c0,0.591,0.104,1.035,0.313,1.334S149.298,52.982,149.742,52.982z"/>
	<path fill="#4D4D4D" d="M155.649,48.268c0.242,0,0.47,0.025,0.685,0.074c0.215,0.05,0.411,0.12,0.591,0.212h1.667v0.556
		c0,0.088-0.024,0.157-0.074,0.209s-0.131,0.09-0.245,0.115l-0.462,0.094c0.062,0.18,0.094,0.372,0.094,0.577
		c0,0.283-0.058,0.536-0.174,0.762c-0.115,0.226-0.273,0.418-0.476,0.578c-0.201,0.159-0.439,0.282-0.715,0.368
		c-0.274,0.086-0.572,0.129-0.891,0.129c-0.1,0-0.196-0.003-0.292-0.011c-0.095-0.007-0.188-0.019-0.28-0.033
		c-0.15,0.092-0.226,0.194-0.226,0.309c0,0.106,0.053,0.184,0.157,0.23c0.104,0.048,0.241,0.082,0.412,0.103
		c0.171,0.02,0.365,0.032,0.583,0.038s0.44,0.018,0.665,0.036c0.226,0.018,0.448,0.05,0.666,0.096s0.412,0.121,0.583,0.226
		s0.308,0.243,0.412,0.415c0.104,0.173,0.157,0.395,0.157,0.666c0,0.253-0.062,0.498-0.188,0.736
		c-0.124,0.238-0.305,0.451-0.541,0.639c-0.237,0.187-0.527,0.337-0.872,0.451c-0.345,0.113-0.737,0.17-1.177,0.17
		c-0.437,0-0.815-0.041-1.136-0.124c-0.321-0.082-0.587-0.192-0.798-0.33c-0.211-0.137-0.367-0.296-0.47-0.476
		c-0.104-0.18-0.154-0.366-0.154-0.561c0-0.253,0.077-0.468,0.23-0.644c0.154-0.176,0.365-0.317,0.633-0.424
		c-0.143-0.08-0.257-0.186-0.341-0.316c-0.085-0.13-0.127-0.3-0.127-0.509c0-0.168,0.062-0.345,0.185-0.53s0.311-0.34,0.563-0.465
		c-0.289-0.157-0.518-0.365-0.685-0.624s-0.25-0.561-0.25-0.905c0-0.282,0.058-0.537,0.173-0.764
		c0.116-0.228,0.276-0.421,0.481-0.581c0.205-0.159,0.447-0.281,0.726-0.365C155.02,48.31,155.323,48.268,155.649,48.268z
		 M157.084,54.269c0-0.1-0.031-0.18-0.094-0.242s-0.146-0.112-0.25-0.148c-0.104-0.037-0.229-0.063-0.371-0.08
		c-0.144-0.017-0.296-0.029-0.457-0.038s-0.329-0.018-0.503-0.025c-0.175-0.007-0.344-0.02-0.509-0.038
		c-0.129,0.077-0.233,0.168-0.313,0.272c-0.081,0.104-0.121,0.223-0.121,0.354c0,0.092,0.021,0.176,0.063,0.253
		c0.042,0.077,0.112,0.144,0.211,0.198c0.1,0.055,0.229,0.098,0.391,0.129c0.162,0.031,0.363,0.047,0.605,0.047
		c0.249,0,0.46-0.017,0.633-0.05c0.172-0.032,0.312-0.079,0.418-0.14c0.105-0.061,0.182-0.133,0.228-0.218
		C157.061,54.46,157.084,54.368,157.084,54.269z M155.649,50.991c0.312,0,0.541-0.079,0.69-0.236
		c0.148-0.157,0.223-0.361,0.223-0.61c0-0.261-0.074-0.465-0.223-0.613c-0.149-0.148-0.379-0.223-0.69-0.223
		s-0.541,0.074-0.688,0.223s-0.221,0.353-0.221,0.613c0,0.245,0.074,0.448,0.224,0.607C155.113,50.911,155.34,50.991,155.649,50.991
		z"/>
	<path fill="#4D4D4D" d="M160.913,45.838v8.2h-1.519v-8.2H160.913z"/>
	<path fill="#4D4D4D" d="M164.636,48.28c0.362,0,0.697,0.058,1.003,0.173c0.307,0.115,0.57,0.283,0.792,0.503
		c0.223,0.221,0.395,0.49,0.518,0.812s0.184,0.687,0.184,1.098c0,0.113-0.005,0.207-0.016,0.28c-0.012,0.073-0.03,0.132-0.056,0.176
		s-0.061,0.074-0.104,0.091s-0.101,0.024-0.17,0.024h-3.405c0.048,0.532,0.199,0.921,0.454,1.166
		c0.255,0.246,0.59,0.369,1.004,0.369c0.209,0,0.39-0.025,0.542-0.074c0.151-0.05,0.286-0.104,0.401-0.165s0.22-0.116,0.313-0.165
		c0.094-0.05,0.186-0.074,0.277-0.074c0.117,0,0.209,0.044,0.275,0.132l0.439,0.55c-0.161,0.188-0.339,0.342-0.533,0.465
		s-0.396,0.22-0.604,0.291c-0.209,0.072-0.42,0.121-0.633,0.148c-0.213,0.028-0.418,0.042-0.616,0.042
		c-0.396,0-0.766-0.065-1.108-0.195s-0.642-0.323-0.896-0.578c-0.255-0.254-0.455-0.57-0.602-0.948
		c-0.147-0.378-0.221-0.815-0.221-1.314c0-0.385,0.063-0.748,0.19-1.089c0.126-0.341,0.309-0.639,0.547-0.892
		s0.528-0.453,0.869-0.602S164.207,48.28,164.636,48.28z M164.664,49.346c-0.363,0-0.647,0.104-0.853,0.311
		c-0.206,0.208-0.34,0.5-0.401,0.878h2.364c0-0.158-0.021-0.309-0.062-0.451c-0.043-0.144-0.109-0.27-0.201-0.38
		c-0.092-0.109-0.207-0.197-0.347-0.261C165.024,49.379,164.858,49.346,164.664,49.346z"/>
	<path fill="#4D4D4D" d="M135.628,65.275c0.092,0,0.169,0.032,0.231,0.099l0.654,0.698c-0.322,0.411-0.723,0.723-1.201,0.936
		s-1.048,0.318-1.708,0.318c-0.598,0-1.135-0.102-1.611-0.305c-0.477-0.204-0.882-0.487-1.216-0.85
		c-0.334-0.363-0.591-0.794-0.77-1.293c-0.18-0.498-0.27-1.043-0.27-1.634c0-0.396,0.043-0.772,0.129-1.13s0.212-0.687,0.377-0.987
		s0.363-0.572,0.597-0.813c0.232-0.242,0.496-0.448,0.789-0.619s0.613-0.301,0.96-0.391s0.716-0.135,1.108-0.135
		c0.293,0,0.57,0.025,0.833,0.077c0.262,0.052,0.507,0.123,0.734,0.215c0.228,0.091,0.438,0.202,0.63,0.332
		c0.192,0.131,0.365,0.272,0.52,0.427l-0.556,0.759c-0.033,0.048-0.075,0.09-0.127,0.127c-0.051,0.036-0.12,0.055-0.209,0.055
		c-0.088,0-0.177-0.031-0.267-0.094s-0.199-0.132-0.33-0.209c-0.13-0.077-0.293-0.146-0.489-0.209s-0.444-0.094-0.745-0.094
		c-0.334,0-0.64,0.061-0.919,0.182c-0.278,0.121-0.518,0.296-0.718,0.525c-0.199,0.229-0.354,0.511-0.464,0.845
		c-0.11,0.333-0.165,0.713-0.165,1.138c0,0.43,0.06,0.812,0.179,1.147c0.119,0.335,0.282,0.618,0.489,0.85
		c0.207,0.23,0.449,0.406,0.726,0.525c0.277,0.119,0.573,0.179,0.889,0.179c0.187,0,0.356-0.01,0.509-0.027
		c0.152-0.019,0.293-0.05,0.424-0.094c0.13-0.044,0.253-0.101,0.368-0.171c0.115-0.069,0.231-0.157,0.35-0.264
		c0.04-0.033,0.082-0.061,0.126-0.083C135.53,65.286,135.578,65.275,135.628,65.275z"/>
	<path fill="#4D4D4D" d="M140.986,67.238c-0.143,0-0.252-0.02-0.327-0.061c-0.075-0.04-0.137-0.124-0.185-0.253l-0.121-0.357
		c-0.143,0.125-0.281,0.234-0.415,0.327c-0.134,0.094-0.273,0.173-0.418,0.236c-0.145,0.064-0.299,0.113-0.462,0.146
		c-0.163,0.032-0.344,0.049-0.542,0.049c-0.249,0-0.477-0.032-0.682-0.099s-0.382-0.164-0.531-0.294
		c-0.148-0.131-0.263-0.293-0.344-0.487c-0.08-0.194-0.12-0.418-0.12-0.671c0-0.209,0.053-0.417,0.159-0.624
		s0.289-0.396,0.547-0.566c0.259-0.171,0.604-0.312,1.034-0.427c0.431-0.113,0.971-0.178,1.62-0.192v-0.291
		c0-0.355-0.075-0.617-0.226-0.784s-0.367-0.25-0.649-0.25c-0.209,0-0.383,0.024-0.522,0.074s-0.261,0.103-0.365,0.159
		c-0.104,0.058-0.203,0.11-0.295,0.16c-0.092,0.049-0.197,0.074-0.318,0.074c-0.106,0-0.195-0.027-0.267-0.08
		c-0.072-0.053-0.132-0.116-0.18-0.189l-0.269-0.484c0.333-0.301,0.701-0.525,1.105-0.674c0.403-0.148,0.839-0.223,1.309-0.223
		c0.337,0,0.639,0.055,0.904,0.165c0.267,0.11,0.492,0.263,0.677,0.459c0.186,0.196,0.327,0.431,0.427,0.701
		c0.099,0.271,0.148,0.568,0.148,0.892v3.563H140.986z M138.99,66.303c0.249,0,0.467-0.045,0.654-0.135
		c0.187-0.09,0.372-0.229,0.556-0.415v-0.881c-0.371,0.016-0.679,0.046-0.924,0.094c-0.246,0.048-0.441,0.107-0.586,0.179
		c-0.146,0.071-0.248,0.154-0.309,0.248c-0.061,0.093-0.091,0.195-0.091,0.305c0,0.221,0.062,0.376,0.185,0.468
		S138.769,66.303,138.99,66.303z"/>
	<path fill="#4D4D4D" d="M144.396,59.038v8.2h-1.519v-8.2H144.396z"/>
	<path fill="#4D4D4D" d="M148.12,61.48c0.362,0,0.697,0.058,1.003,0.173c0.307,0.115,0.57,0.283,0.792,0.503
		c0.223,0.221,0.395,0.49,0.518,0.812s0.184,0.687,0.184,1.098c0,0.113-0.005,0.207-0.016,0.28c-0.012,0.073-0.03,0.132-0.056,0.176
		s-0.061,0.074-0.104,0.091s-0.101,0.024-0.17,0.024h-3.405c0.048,0.532,0.199,0.921,0.454,1.166
		c0.255,0.246,0.59,0.369,1.004,0.369c0.209,0,0.39-0.025,0.542-0.074c0.151-0.05,0.286-0.104,0.401-0.165s0.22-0.116,0.313-0.165
		c0.094-0.05,0.186-0.074,0.277-0.074c0.117,0,0.209,0.044,0.275,0.132l0.439,0.55c-0.161,0.188-0.339,0.342-0.533,0.465
		s-0.396,0.22-0.604,0.291c-0.209,0.072-0.42,0.121-0.633,0.148c-0.213,0.028-0.418,0.042-0.616,0.042
		c-0.396,0-0.766-0.065-1.108-0.195s-0.642-0.323-0.896-0.578c-0.255-0.254-0.455-0.57-0.602-0.948
		c-0.147-0.378-0.221-0.815-0.221-1.314c0-0.385,0.063-0.748,0.19-1.089c0.126-0.341,0.309-0.639,0.547-0.892
		s0.528-0.453,0.869-0.602S147.69,61.48,148.12,61.48z M148.147,62.547c-0.363,0-0.647,0.104-0.853,0.311
		c-0.206,0.208-0.34,0.5-0.401,0.878h2.364c0-0.158-0.021-0.309-0.062-0.451c-0.043-0.144-0.109-0.27-0.201-0.38
		c-0.092-0.109-0.207-0.197-0.347-0.261C148.507,62.579,148.341,62.547,148.147,62.547z"/>
	<path fill="#4D4D4D" d="M151.557,67.238v-5.67h0.935c0.191,0,0.317,0.088,0.38,0.264l0.094,0.396
		c0.113-0.109,0.231-0.21,0.354-0.302s0.253-0.171,0.391-0.236c0.138-0.066,0.286-0.118,0.445-0.154
		c0.159-0.037,0.333-0.055,0.52-0.055c0.309,0,0.581,0.053,0.82,0.159c0.238,0.106,0.438,0.255,0.602,0.445s0.286,0.418,0.369,0.682
		c0.082,0.265,0.123,0.554,0.123,0.869v3.603h-1.512v-3.603c0-0.315-0.074-0.56-0.221-0.734c-0.146-0.174-0.362-0.261-0.648-0.261
		c-0.217,0-0.417,0.047-0.603,0.141c-0.186,0.093-0.362,0.221-0.531,0.382v4.075H151.557z"/>
	<path fill="#4D4D4D" d="M161.88,67.238c-0.194,0-0.319-0.088-0.374-0.264l-0.127-0.495c-0.228,0.249-0.484,0.452-0.772,0.607
		c-0.288,0.156-0.628,0.234-1.021,0.234c-0.305,0-0.583-0.064-0.836-0.192c-0.253-0.129-0.472-0.316-0.657-0.564
		c-0.186-0.247-0.329-0.551-0.432-0.91s-0.154-0.77-0.154-1.231c0-0.422,0.058-0.814,0.174-1.178
		c0.115-0.362,0.279-0.676,0.492-0.94c0.212-0.264,0.469-0.471,0.77-0.621s0.635-0.226,1.001-0.226c0.309,0,0.567,0.046,0.778,0.138
		s0.402,0.216,0.575,0.374v-2.932h1.518v8.2H161.88z M160.109,66.143c0.268,0,0.492-0.052,0.674-0.156s0.353-0.256,0.515-0.454
		v-2.491c-0.144-0.165-0.298-0.28-0.465-0.347c-0.167-0.065-0.344-0.099-0.531-0.099c-0.184,0-0.35,0.035-0.5,0.104
		s-0.28,0.179-0.388,0.327c-0.108,0.148-0.192,0.338-0.251,0.569c-0.059,0.23-0.088,0.506-0.088,0.825
		c0,0.315,0.024,0.583,0.072,0.803c0.047,0.22,0.116,0.397,0.206,0.533s0.198,0.234,0.327,0.295
		C159.808,66.114,159.952,66.143,160.109,66.143z"/>
	<path fill="#4D4D4D" d="M167.826,67.238c-0.143,0-0.252-0.02-0.327-0.061c-0.075-0.04-0.137-0.124-0.185-0.253l-0.121-0.357
		c-0.143,0.125-0.281,0.234-0.415,0.327c-0.134,0.094-0.273,0.173-0.418,0.236c-0.145,0.064-0.299,0.113-0.462,0.146
		c-0.163,0.032-0.344,0.049-0.542,0.049c-0.249,0-0.477-0.032-0.682-0.099s-0.382-0.164-0.531-0.294
		c-0.148-0.131-0.263-0.293-0.344-0.487c-0.08-0.194-0.12-0.418-0.12-0.671c0-0.209,0.053-0.417,0.159-0.624
		s0.289-0.396,0.547-0.566c0.259-0.171,0.604-0.312,1.034-0.427c0.431-0.113,0.971-0.178,1.62-0.192v-0.291
		c0-0.355-0.075-0.617-0.226-0.784s-0.367-0.25-0.649-0.25c-0.209,0-0.383,0.024-0.522,0.074s-0.261,0.103-0.365,0.159
		c-0.104,0.058-0.203,0.11-0.295,0.16c-0.092,0.049-0.197,0.074-0.318,0.074c-0.106,0-0.195-0.027-0.267-0.08
		c-0.072-0.053-0.132-0.116-0.18-0.189l-0.269-0.484c0.333-0.301,0.701-0.525,1.105-0.674c0.403-0.148,0.839-0.223,1.309-0.223
		c0.337,0,0.639,0.055,0.904,0.165c0.267,0.11,0.492,0.263,0.677,0.459c0.186,0.196,0.327,0.431,0.427,0.701
		c0.099,0.271,0.148,0.568,0.148,0.892v3.563H167.826z M165.83,66.303c0.249,0,0.467-0.045,0.654-0.135
		c0.187-0.09,0.372-0.229,0.556-0.415v-0.881c-0.371,0.016-0.679,0.046-0.924,0.094c-0.246,0.048-0.441,0.107-0.586,0.179
		c-0.146,0.071-0.248,0.154-0.309,0.248c-0.061,0.093-0.091,0.195-0.091,0.305c0,0.221,0.062,0.376,0.185,0.468
		S165.609,66.303,165.83,66.303z"/>
	<path fill="#4D4D4D" d="M169.707,67.238v-5.67h0.896c0.154,0,0.261,0.027,0.319,0.082s0.101,0.15,0.126,0.286l0.077,0.566
		c0.18-0.322,0.388-0.577,0.624-0.765c0.237-0.187,0.513-0.28,0.828-0.28c0.257,0,0.466,0.061,0.627,0.182l-0.099,1.122
		c-0.019,0.073-0.047,0.124-0.086,0.151c-0.038,0.027-0.091,0.041-0.156,0.041c-0.059,0-0.144-0.009-0.253-0.024
		c-0.11-0.017-0.213-0.025-0.309-0.025c-0.278,0-0.499,0.076-0.662,0.229s-0.302,0.364-0.416,0.635v3.471H169.707z"/>
</g>
<path fill="#4D4D4D" d="M108.085,21.931l-9.903-9.903v5.942H87.618v7.923h10.564v5.942L108.085,21.931z"/>
<path fill="#4D4D4D" d="M43.863,6.527v27.238h-22c-1.736,0-3.143-1.407-3.143-3.143s1.407-3.143,3.143-3.143h19.905V2.337H20.815
	c-2.305,0-4.19,1.886-4.19,4.19V31.67c0,2.305,1.886,4.19,4.19,4.19h25.143V6.527H43.863z"/>
<rect x="76.233" y="17.97" fill="#4D4D4D" width="22.454" height="7.919"/>
<path fill="#E57373" d="M24.252,11.95l0.469,0.223c0,0,0.29,0.119,0,0.454c-0.112,0.149-0.253,0.35-0.253,0.35
	s0.246,0.015,0.513,0.454c-0.156,0.193-0.558,1.295-0.439,1.898c0,0,0.171,1.116,1.101,1.764c0.93,0.647,1.347,1.049,1.354,1.206
	c-0.193,0.246-0.335,0.223-0.513,0.231c-0.193,0.052-0.186,0.208-0.015,0.35c0.171,0.141,0.595,0.342,0.595,0.342
	s0.417,0.208,0,0.402c-0.179,0.208-0.171,0.365-0.171,0.365s0.685,0.476,1.808-0.208c0.975,0.37,1.771,0.707,2.233-0.208
	c-0.893-0.506-0.953-0.863-0.96-0.863s2.704-1.23,7.233,1.287c0,0-1.206-1.893-1.682-2.349c0.324-0.33,0.606-0.419,0.606-0.419
	s0.432-0.186,0.644-0.621c-0.554,0.071-3.974,0.897-4.227-0.852c1.168-1.02,1.146-1.094,1.473-1.913
	c-0.7,0.149-1.042,0.089-1.072-0.007c0.164-0.29,0.752-1.265,0.752-1.265s-0.93,0.141-2.151,0.781s-2.887,0.893-3.289-0.134
	c0.193-1.265-0.089-2.099-1.697-2.411c-1.027,0-1.414,0.298-1.488,0.491c-0.074,0.193-0.193,0.234-0.193,0.234
	S24.449,11.571,24.252,11.95z"/>
<circle display="none" fill="#4D4D4D" cx="26.023" cy="11.66" r="0.223"/>
</svg>
